<mxfile host="app.diagrams.net" modified="2022-08-17T14:06:10.255Z" agent="5.0 (Macintosh; Intel Mac OS X 10_15_7) AppleWebKit/605.1.15 (KHTML, like Gecko) Version/15.6 Safari/605.1.15" etag="fz5WTSrcCtE8cUho-v0I" version="20.2.4" type="github">
  <diagram id="bkhS0injimwwEIBD8EdO" name="Page-1">
    <mxGraphModel dx="1018" dy="690" grid="1" gridSize="10" guides="1" tooltips="1" connect="1" arrows="1" fold="1" page="1" pageScale="1" pageWidth="827" pageHeight="1169" math="0" shadow="0">
      <root>
        <mxCell id="0" />
        <mxCell id="1" parent="0" />
        <mxCell id="9aQIo1MV9v7AI-3ga-QW-1" value="" style="ellipse;whiteSpace=wrap;html=1;aspect=fixed;" parent="1" vertex="1">
          <mxGeometry x="120" y="80" width="40" height="40" as="geometry" />
        </mxCell>
        <mxCell id="9aQIo1MV9v7AI-3ga-QW-2" value="" style="ellipse;whiteSpace=wrap;html=1;aspect=fixed;" parent="1" vertex="1">
          <mxGeometry x="120" y="160" width="40" height="40" as="geometry" />
        </mxCell>
        <mxCell id="9aQIo1MV9v7AI-3ga-QW-3" value="" style="ellipse;whiteSpace=wrap;html=1;aspect=fixed;" parent="1" vertex="1">
          <mxGeometry x="120" y="240" width="40" height="40" as="geometry" />
        </mxCell>
        <mxCell id="9aQIo1MV9v7AI-3ga-QW-4" value="" style="ellipse;whiteSpace=wrap;html=1;aspect=fixed;" parent="1" vertex="1">
          <mxGeometry x="120" y="320" width="40" height="40" as="geometry" />
        </mxCell>
        <mxCell id="3kcBv0xAYxEKEZCNpnh7-5" style="edgeStyle=none;rounded=0;orthogonalLoop=1;jettySize=auto;html=1;entryX=1;entryY=0.5;entryDx=0;entryDy=0;" edge="1" parent="1" source="9aQIo1MV9v7AI-3ga-QW-5" target="9aQIo1MV9v7AI-3ga-QW-1">
          <mxGeometry relative="1" as="geometry" />
        </mxCell>
        <mxCell id="3kcBv0xAYxEKEZCNpnh7-6" style="edgeStyle=none;rounded=0;orthogonalLoop=1;jettySize=auto;html=1;entryX=1;entryY=0.5;entryDx=0;entryDy=0;" edge="1" parent="1" source="9aQIo1MV9v7AI-3ga-QW-5" target="9aQIo1MV9v7AI-3ga-QW-2">
          <mxGeometry relative="1" as="geometry" />
        </mxCell>
        <mxCell id="3kcBv0xAYxEKEZCNpnh7-7" style="edgeStyle=none;rounded=0;orthogonalLoop=1;jettySize=auto;html=1;entryX=1;entryY=0.5;entryDx=0;entryDy=0;" edge="1" parent="1" source="9aQIo1MV9v7AI-3ga-QW-5" target="9aQIo1MV9v7AI-3ga-QW-4">
          <mxGeometry relative="1" as="geometry" />
        </mxCell>
        <mxCell id="9aQIo1MV9v7AI-3ga-QW-5" value="&lt;b&gt;L1a&lt;/b&gt;" style="ellipse;whiteSpace=wrap;html=1;aspect=fixed;fillColor=#d5e8d4;strokeColor=#82b366;" parent="1" vertex="1">
          <mxGeometry x="201" y="80" width="40" height="40" as="geometry" />
        </mxCell>
        <mxCell id="3kcBv0xAYxEKEZCNpnh7-1" style="rounded=0;orthogonalLoop=1;jettySize=auto;html=1;entryX=1;entryY=0.5;entryDx=0;entryDy=0;" edge="1" parent="1" source="9aQIo1MV9v7AI-3ga-QW-6" target="9aQIo1MV9v7AI-3ga-QW-1">
          <mxGeometry relative="1" as="geometry" />
        </mxCell>
        <mxCell id="3kcBv0xAYxEKEZCNpnh7-2" style="edgeStyle=none;rounded=0;orthogonalLoop=1;jettySize=auto;html=1;entryX=1;entryY=0.5;entryDx=0;entryDy=0;" edge="1" parent="1" source="9aQIo1MV9v7AI-3ga-QW-6" target="9aQIo1MV9v7AI-3ga-QW-2">
          <mxGeometry relative="1" as="geometry" />
        </mxCell>
        <mxCell id="3kcBv0xAYxEKEZCNpnh7-4" style="edgeStyle=none;rounded=0;orthogonalLoop=1;jettySize=auto;html=1;" edge="1" parent="1" source="9aQIo1MV9v7AI-3ga-QW-6">
          <mxGeometry relative="1" as="geometry">
            <mxPoint x="160" y="260" as="targetPoint" />
          </mxGeometry>
        </mxCell>
        <mxCell id="9aQIo1MV9v7AI-3ga-QW-6" value="L1b" style="ellipse;whiteSpace=wrap;html=1;aspect=fixed;fillColor=#ffe6cc;strokeColor=#d79b00;" parent="1" vertex="1">
          <mxGeometry x="200" y="160" width="40" height="40" as="geometry" />
        </mxCell>
        <mxCell id="3kcBv0xAYxEKEZCNpnh7-3" style="edgeStyle=none;rounded=0;orthogonalLoop=1;jettySize=auto;html=1;" edge="1" parent="1" source="9aQIo1MV9v7AI-3ga-QW-7" target="9aQIo1MV9v7AI-3ga-QW-3">
          <mxGeometry relative="1" as="geometry">
            <mxPoint x="170" y="260" as="targetPoint" />
          </mxGeometry>
        </mxCell>
        <mxCell id="3kcBv0xAYxEKEZCNpnh7-8" style="edgeStyle=none;rounded=0;orthogonalLoop=1;jettySize=auto;html=1;entryX=1;entryY=0.5;entryDx=0;entryDy=0;" edge="1" parent="1" source="9aQIo1MV9v7AI-3ga-QW-7" target="9aQIo1MV9v7AI-3ga-QW-3">
          <mxGeometry relative="1" as="geometry" />
        </mxCell>
        <mxCell id="3kcBv0xAYxEKEZCNpnh7-9" style="edgeStyle=none;rounded=0;orthogonalLoop=1;jettySize=auto;html=1;entryX=1;entryY=0.5;entryDx=0;entryDy=0;" edge="1" parent="1" source="9aQIo1MV9v7AI-3ga-QW-7" target="9aQIo1MV9v7AI-3ga-QW-4">
          <mxGeometry relative="1" as="geometry" />
        </mxCell>
        <mxCell id="3kcBv0xAYxEKEZCNpnh7-10" style="edgeStyle=none;rounded=0;orthogonalLoop=1;jettySize=auto;html=1;entryX=1;entryY=0.5;entryDx=0;entryDy=0;" edge="1" parent="1" source="9aQIo1MV9v7AI-3ga-QW-7" target="9aQIo1MV9v7AI-3ga-QW-2">
          <mxGeometry relative="1" as="geometry" />
        </mxCell>
        <mxCell id="9aQIo1MV9v7AI-3ga-QW-7" value="L1c" style="ellipse;whiteSpace=wrap;html=1;aspect=fixed;fillColor=#fff2cc;strokeColor=#d6b656;" parent="1" vertex="1">
          <mxGeometry x="200" y="240" width="40" height="40" as="geometry" />
        </mxCell>
        <mxCell id="3kcBv0xAYxEKEZCNpnh7-11" style="edgeStyle=none;rounded=0;orthogonalLoop=1;jettySize=auto;html=1;entryX=1;entryY=0.5;entryDx=0;entryDy=0;" edge="1" parent="1" source="9aQIo1MV9v7AI-3ga-QW-8" target="9aQIo1MV9v7AI-3ga-QW-3">
          <mxGeometry relative="1" as="geometry" />
        </mxCell>
        <mxCell id="3kcBv0xAYxEKEZCNpnh7-12" style="edgeStyle=none;rounded=0;orthogonalLoop=1;jettySize=auto;html=1;entryX=1;entryY=0.5;entryDx=0;entryDy=0;" edge="1" parent="1" source="9aQIo1MV9v7AI-3ga-QW-8" target="9aQIo1MV9v7AI-3ga-QW-2">
          <mxGeometry relative="1" as="geometry" />
        </mxCell>
        <mxCell id="3kcBv0xAYxEKEZCNpnh7-13" style="edgeStyle=none;rounded=0;orthogonalLoop=1;jettySize=auto;html=1;entryX=1;entryY=0.5;entryDx=0;entryDy=0;" edge="1" parent="1" source="9aQIo1MV9v7AI-3ga-QW-8" target="9aQIo1MV9v7AI-3ga-QW-4">
          <mxGeometry relative="1" as="geometry" />
        </mxCell>
        <mxCell id="9aQIo1MV9v7AI-3ga-QW-8" value="L1d" style="ellipse;whiteSpace=wrap;html=1;aspect=fixed;fillColor=#e1d5e7;strokeColor=#9673a6;" parent="1" vertex="1">
          <mxGeometry x="200" y="320" width="40" height="40" as="geometry" />
        </mxCell>
        <mxCell id="3kcBv0xAYxEKEZCNpnh7-16" style="edgeStyle=none;rounded=0;orthogonalLoop=1;jettySize=auto;html=1;entryX=1;entryY=0.5;entryDx=0;entryDy=0;" edge="1" parent="1" source="9aQIo1MV9v7AI-3ga-QW-9" target="9aQIo1MV9v7AI-3ga-QW-5">
          <mxGeometry relative="1" as="geometry" />
        </mxCell>
        <mxCell id="3kcBv0xAYxEKEZCNpnh7-17" style="edgeStyle=none;rounded=0;orthogonalLoop=1;jettySize=auto;html=1;entryX=1;entryY=0.5;entryDx=0;entryDy=0;" edge="1" parent="1" source="9aQIo1MV9v7AI-3ga-QW-9" target="9aQIo1MV9v7AI-3ga-QW-6">
          <mxGeometry relative="1" as="geometry" />
        </mxCell>
        <mxCell id="3kcBv0xAYxEKEZCNpnh7-18" style="edgeStyle=none;rounded=0;orthogonalLoop=1;jettySize=auto;html=1;entryX=1;entryY=0.5;entryDx=0;entryDy=0;" edge="1" parent="1" source="9aQIo1MV9v7AI-3ga-QW-9" target="9aQIo1MV9v7AI-3ga-QW-7">
          <mxGeometry relative="1" as="geometry" />
        </mxCell>
        <mxCell id="9aQIo1MV9v7AI-3ga-QW-9" value="" style="ellipse;whiteSpace=wrap;html=1;aspect=fixed;fillColor=#dae8fc;strokeColor=#6c8ebf;" parent="1" vertex="1">
          <mxGeometry x="280" y="80" width="40" height="40" as="geometry" />
        </mxCell>
        <mxCell id="3kcBv0xAYxEKEZCNpnh7-19" style="edgeStyle=none;rounded=0;orthogonalLoop=1;jettySize=auto;html=1;entryX=1;entryY=0.5;entryDx=0;entryDy=0;" edge="1" parent="1" source="9aQIo1MV9v7AI-3ga-QW-10" target="9aQIo1MV9v7AI-3ga-QW-6">
          <mxGeometry relative="1" as="geometry" />
        </mxCell>
        <mxCell id="3kcBv0xAYxEKEZCNpnh7-20" style="edgeStyle=none;rounded=0;orthogonalLoop=1;jettySize=auto;html=1;entryX=1;entryY=0.5;entryDx=0;entryDy=0;" edge="1" parent="1" target="9aQIo1MV9v7AI-3ga-QW-7">
          <mxGeometry relative="1" as="geometry">
            <mxPoint x="300" y="180" as="sourcePoint" />
          </mxGeometry>
        </mxCell>
        <mxCell id="3kcBv0xAYxEKEZCNpnh7-28" style="edgeStyle=none;rounded=0;orthogonalLoop=1;jettySize=auto;html=1;entryX=1;entryY=0.5;entryDx=0;entryDy=0;" edge="1" parent="1" source="9aQIo1MV9v7AI-3ga-QW-10" target="9aQIo1MV9v7AI-3ga-QW-5">
          <mxGeometry relative="1" as="geometry" />
        </mxCell>
        <mxCell id="9aQIo1MV9v7AI-3ga-QW-10" value="" style="ellipse;whiteSpace=wrap;html=1;aspect=fixed;" parent="1" vertex="1">
          <mxGeometry x="280" y="160" width="40" height="40" as="geometry" />
        </mxCell>
        <mxCell id="3kcBv0xAYxEKEZCNpnh7-22" style="edgeStyle=none;rounded=0;orthogonalLoop=1;jettySize=auto;html=1;entryX=1;entryY=0.5;entryDx=0;entryDy=0;" edge="1" parent="1" source="9aQIo1MV9v7AI-3ga-QW-11" target="9aQIo1MV9v7AI-3ga-QW-6">
          <mxGeometry relative="1" as="geometry" />
        </mxCell>
        <mxCell id="3kcBv0xAYxEKEZCNpnh7-23" style="edgeStyle=none;rounded=0;orthogonalLoop=1;jettySize=auto;html=1;" edge="1" parent="1" source="9aQIo1MV9v7AI-3ga-QW-11" target="9aQIo1MV9v7AI-3ga-QW-7">
          <mxGeometry relative="1" as="geometry" />
        </mxCell>
        <mxCell id="3kcBv0xAYxEKEZCNpnh7-24" style="edgeStyle=none;rounded=0;orthogonalLoop=1;jettySize=auto;html=1;entryX=1;entryY=0.5;entryDx=0;entryDy=0;" edge="1" parent="1" source="9aQIo1MV9v7AI-3ga-QW-11" target="9aQIo1MV9v7AI-3ga-QW-8">
          <mxGeometry relative="1" as="geometry" />
        </mxCell>
        <mxCell id="9aQIo1MV9v7AI-3ga-QW-11" value="" style="ellipse;whiteSpace=wrap;html=1;aspect=fixed;" parent="1" vertex="1">
          <mxGeometry x="280" y="240" width="40" height="40" as="geometry" />
        </mxCell>
        <mxCell id="3kcBv0xAYxEKEZCNpnh7-25" style="edgeStyle=none;rounded=0;orthogonalLoop=1;jettySize=auto;html=1;entryX=1;entryY=0.5;entryDx=0;entryDy=0;" edge="1" parent="1" source="9aQIo1MV9v7AI-3ga-QW-12" target="9aQIo1MV9v7AI-3ga-QW-6">
          <mxGeometry relative="1" as="geometry" />
        </mxCell>
        <mxCell id="3kcBv0xAYxEKEZCNpnh7-26" style="edgeStyle=none;rounded=0;orthogonalLoop=1;jettySize=auto;html=1;entryX=1;entryY=0.5;entryDx=0;entryDy=0;" edge="1" parent="1" source="9aQIo1MV9v7AI-3ga-QW-12" target="9aQIo1MV9v7AI-3ga-QW-7">
          <mxGeometry relative="1" as="geometry" />
        </mxCell>
        <mxCell id="3kcBv0xAYxEKEZCNpnh7-27" style="edgeStyle=none;rounded=0;orthogonalLoop=1;jettySize=auto;html=1;" edge="1" parent="1" source="9aQIo1MV9v7AI-3ga-QW-12" target="9aQIo1MV9v7AI-3ga-QW-8">
          <mxGeometry relative="1" as="geometry" />
        </mxCell>
        <mxCell id="9aQIo1MV9v7AI-3ga-QW-12" value="" style="ellipse;whiteSpace=wrap;html=1;aspect=fixed;" parent="1" vertex="1">
          <mxGeometry x="280" y="320" width="40" height="40" as="geometry" />
        </mxCell>
        <mxCell id="9aQIo1MV9v7AI-3ga-QW-13" value="L2d" style="ellipse;whiteSpace=wrap;html=1;aspect=fixed;fillColor=#e1d5e7;strokeColor=#9673a6;" parent="1" vertex="1">
          <mxGeometry x="360" y="80" width="40" height="40" as="geometry" />
        </mxCell>
        <mxCell id="3kcBv0xAYxEKEZCNpnh7-29" style="edgeStyle=none;rounded=0;orthogonalLoop=1;jettySize=auto;html=1;entryX=1;entryY=0.5;entryDx=0;entryDy=0;" edge="1" parent="1" source="9aQIo1MV9v7AI-3ga-QW-14" target="9aQIo1MV9v7AI-3ga-QW-10">
          <mxGeometry relative="1" as="geometry" />
        </mxCell>
        <mxCell id="3kcBv0xAYxEKEZCNpnh7-30" style="edgeStyle=none;rounded=0;orthogonalLoop=1;jettySize=auto;html=1;entryX=1;entryY=0.5;entryDx=0;entryDy=0;" edge="1" parent="1" source="9aQIo1MV9v7AI-3ga-QW-14" target="9aQIo1MV9v7AI-3ga-QW-11">
          <mxGeometry relative="1" as="geometry" />
        </mxCell>
        <mxCell id="3kcBv0xAYxEKEZCNpnh7-31" style="edgeStyle=none;rounded=0;orthogonalLoop=1;jettySize=auto;html=1;entryX=1;entryY=0.5;entryDx=0;entryDy=0;" edge="1" parent="1" source="9aQIo1MV9v7AI-3ga-QW-14" target="9aQIo1MV9v7AI-3ga-QW-12">
          <mxGeometry relative="1" as="geometry" />
        </mxCell>
        <mxCell id="9aQIo1MV9v7AI-3ga-QW-14" value="&lt;b&gt;L2a&lt;/b&gt;" style="ellipse;whiteSpace=wrap;html=1;aspect=fixed;fillColor=#d5e8d4;strokeColor=#82b366;" parent="1" vertex="1">
          <mxGeometry x="360" y="160" width="40" height="40" as="geometry" />
        </mxCell>
        <mxCell id="3kcBv0xAYxEKEZCNpnh7-32" style="edgeStyle=none;rounded=0;orthogonalLoop=1;jettySize=auto;html=1;entryX=1;entryY=0.5;entryDx=0;entryDy=0;" edge="1" parent="1" source="9aQIo1MV9v7AI-3ga-QW-15" target="9aQIo1MV9v7AI-3ga-QW-10">
          <mxGeometry relative="1" as="geometry" />
        </mxCell>
        <mxCell id="3kcBv0xAYxEKEZCNpnh7-33" style="edgeStyle=none;rounded=0;orthogonalLoop=1;jettySize=auto;html=1;entryX=1;entryY=0.5;entryDx=0;entryDy=0;" edge="1" parent="1" source="9aQIo1MV9v7AI-3ga-QW-15" target="9aQIo1MV9v7AI-3ga-QW-11">
          <mxGeometry relative="1" as="geometry" />
        </mxCell>
        <mxCell id="3kcBv0xAYxEKEZCNpnh7-34" style="edgeStyle=none;rounded=0;orthogonalLoop=1;jettySize=auto;html=1;entryX=1;entryY=0.5;entryDx=0;entryDy=0;" edge="1" parent="1" source="9aQIo1MV9v7AI-3ga-QW-15" target="9aQIo1MV9v7AI-3ga-QW-12">
          <mxGeometry relative="1" as="geometry" />
        </mxCell>
        <mxCell id="9aQIo1MV9v7AI-3ga-QW-15" value="L2b" style="ellipse;whiteSpace=wrap;html=1;aspect=fixed;fillColor=#ffe6cc;strokeColor=#d79b00;" parent="1" vertex="1">
          <mxGeometry x="360" y="240" width="40" height="40" as="geometry" />
        </mxCell>
        <mxCell id="3kcBv0xAYxEKEZCNpnh7-35" style="edgeStyle=none;rounded=0;orthogonalLoop=1;jettySize=auto;html=1;entryX=1;entryY=0.5;entryDx=0;entryDy=0;" edge="1" parent="1" source="9aQIo1MV9v7AI-3ga-QW-16" target="9aQIo1MV9v7AI-3ga-QW-10">
          <mxGeometry relative="1" as="geometry" />
        </mxCell>
        <mxCell id="3kcBv0xAYxEKEZCNpnh7-36" style="edgeStyle=none;rounded=0;orthogonalLoop=1;jettySize=auto;html=1;entryX=1;entryY=0.5;entryDx=0;entryDy=0;" edge="1" parent="1" source="9aQIo1MV9v7AI-3ga-QW-16" target="9aQIo1MV9v7AI-3ga-QW-11">
          <mxGeometry relative="1" as="geometry" />
        </mxCell>
        <mxCell id="3kcBv0xAYxEKEZCNpnh7-37" style="edgeStyle=none;rounded=0;orthogonalLoop=1;jettySize=auto;html=1;entryX=1;entryY=0.5;entryDx=0;entryDy=0;" edge="1" parent="1" source="9aQIo1MV9v7AI-3ga-QW-16" target="9aQIo1MV9v7AI-3ga-QW-12">
          <mxGeometry relative="1" as="geometry" />
        </mxCell>
        <mxCell id="9aQIo1MV9v7AI-3ga-QW-16" value="L2c" style="ellipse;whiteSpace=wrap;html=1;aspect=fixed;fillColor=#fff2cc;strokeColor=#d6b656;" parent="1" vertex="1">
          <mxGeometry x="360" y="320" width="40" height="40" as="geometry" />
        </mxCell>
        <mxCell id="3kcBv0xAYxEKEZCNpnh7-38" style="edgeStyle=none;rounded=0;orthogonalLoop=1;jettySize=auto;html=1;entryX=1;entryY=0.5;entryDx=0;entryDy=0;" edge="1" parent="1" source="9aQIo1MV9v7AI-3ga-QW-18" target="9aQIo1MV9v7AI-3ga-QW-14">
          <mxGeometry relative="1" as="geometry" />
        </mxCell>
        <mxCell id="3kcBv0xAYxEKEZCNpnh7-39" style="edgeStyle=none;rounded=0;orthogonalLoop=1;jettySize=auto;html=1;entryX=1;entryY=0.5;entryDx=0;entryDy=0;" edge="1" parent="1" source="9aQIo1MV9v7AI-3ga-QW-18" target="9aQIo1MV9v7AI-3ga-QW-15">
          <mxGeometry relative="1" as="geometry" />
        </mxCell>
        <mxCell id="3kcBv0xAYxEKEZCNpnh7-40" style="edgeStyle=none;rounded=0;orthogonalLoop=1;jettySize=auto;html=1;entryX=1;entryY=0.5;entryDx=0;entryDy=0;" edge="1" parent="1" source="9aQIo1MV9v7AI-3ga-QW-18" target="9aQIo1MV9v7AI-3ga-QW-16">
          <mxGeometry relative="1" as="geometry" />
        </mxCell>
        <mxCell id="9aQIo1MV9v7AI-3ga-QW-18" value="" style="ellipse;whiteSpace=wrap;html=1;aspect=fixed;" parent="1" vertex="1">
          <mxGeometry x="440" y="160" width="40" height="40" as="geometry" />
        </mxCell>
        <mxCell id="3kcBv0xAYxEKEZCNpnh7-41" style="edgeStyle=none;rounded=0;orthogonalLoop=1;jettySize=auto;html=1;entryX=1;entryY=0.5;entryDx=0;entryDy=0;" edge="1" parent="1" source="9aQIo1MV9v7AI-3ga-QW-19" target="9aQIo1MV9v7AI-3ga-QW-14">
          <mxGeometry relative="1" as="geometry" />
        </mxCell>
        <mxCell id="3kcBv0xAYxEKEZCNpnh7-42" style="edgeStyle=none;rounded=0;orthogonalLoop=1;jettySize=auto;html=1;entryX=1;entryY=0.5;entryDx=0;entryDy=0;" edge="1" parent="1" source="9aQIo1MV9v7AI-3ga-QW-19" target="9aQIo1MV9v7AI-3ga-QW-15">
          <mxGeometry relative="1" as="geometry" />
        </mxCell>
        <mxCell id="3kcBv0xAYxEKEZCNpnh7-43" style="edgeStyle=none;rounded=0;orthogonalLoop=1;jettySize=auto;html=1;entryX=1;entryY=0.5;entryDx=0;entryDy=0;" edge="1" parent="1" source="9aQIo1MV9v7AI-3ga-QW-19" target="9aQIo1MV9v7AI-3ga-QW-16">
          <mxGeometry relative="1" as="geometry" />
        </mxCell>
        <mxCell id="9aQIo1MV9v7AI-3ga-QW-19" value="" style="ellipse;whiteSpace=wrap;html=1;aspect=fixed;" parent="1" vertex="1">
          <mxGeometry x="440" y="240" width="40" height="40" as="geometry" />
        </mxCell>
        <mxCell id="9aQIo1MV9v7AI-3ga-QW-21" value="" style="ellipse;whiteSpace=wrap;html=1;aspect=fixed;" parent="1" vertex="1">
          <mxGeometry x="520" y="80" width="40" height="40" as="geometry" />
        </mxCell>
        <mxCell id="9aQIo1MV9v7AI-3ga-QW-22" value="" style="ellipse;whiteSpace=wrap;html=1;aspect=fixed;" parent="1" vertex="1">
          <mxGeometry x="520" y="160" width="40" height="40" as="geometry" />
        </mxCell>
        <mxCell id="9aQIo1MV9v7AI-3ga-QW-23" value="" style="ellipse;whiteSpace=wrap;html=1;aspect=fixed;" parent="1" vertex="1">
          <mxGeometry x="520" y="240" width="40" height="40" as="geometry" />
        </mxCell>
        <mxCell id="9aQIo1MV9v7AI-3ga-QW-24" value="" style="ellipse;whiteSpace=wrap;html=1;aspect=fixed;" parent="1" vertex="1">
          <mxGeometry x="520" y="320" width="40" height="40" as="geometry" />
        </mxCell>
        <mxCell id="9aQIo1MV9v7AI-3ga-QW-25" value="" style="ellipse;whiteSpace=wrap;html=1;aspect=fixed;" parent="1" vertex="1">
          <mxGeometry x="600" y="80" width="40" height="40" as="geometry" />
        </mxCell>
        <mxCell id="9aQIo1MV9v7AI-3ga-QW-26" value="" style="ellipse;whiteSpace=wrap;html=1;aspect=fixed;" parent="1" vertex="1">
          <mxGeometry x="600" y="160" width="40" height="40" as="geometry" />
        </mxCell>
        <mxCell id="9aQIo1MV9v7AI-3ga-QW-27" value="" style="ellipse;whiteSpace=wrap;html=1;aspect=fixed;" parent="1" vertex="1">
          <mxGeometry x="600" y="240" width="40" height="40" as="geometry" />
        </mxCell>
        <mxCell id="9aQIo1MV9v7AI-3ga-QW-28" value="" style="ellipse;whiteSpace=wrap;html=1;aspect=fixed;" parent="1" vertex="1">
          <mxGeometry x="600" y="320" width="40" height="40" as="geometry" />
        </mxCell>
        <mxCell id="9aQIo1MV9v7AI-3ga-QW-29" value="" style="ellipse;whiteSpace=wrap;html=1;aspect=fixed;" parent="1" vertex="1">
          <mxGeometry x="680" y="80" width="40" height="40" as="geometry" />
        </mxCell>
        <mxCell id="9aQIo1MV9v7AI-3ga-QW-30" value="" style="ellipse;whiteSpace=wrap;html=1;aspect=fixed;" parent="1" vertex="1">
          <mxGeometry x="680" y="160" width="40" height="40" as="geometry" />
        </mxCell>
        <mxCell id="9aQIo1MV9v7AI-3ga-QW-31" value="" style="ellipse;whiteSpace=wrap;html=1;aspect=fixed;" parent="1" vertex="1">
          <mxGeometry x="680" y="240" width="40" height="40" as="geometry" />
        </mxCell>
        <mxCell id="9aQIo1MV9v7AI-3ga-QW-32" value="" style="ellipse;whiteSpace=wrap;html=1;aspect=fixed;" parent="1" vertex="1">
          <mxGeometry x="680" y="320" width="40" height="40" as="geometry" />
        </mxCell>
        <mxCell id="9aQIo1MV9v7AI-3ga-QW-36" value="" style="ellipse;whiteSpace=wrap;html=1;aspect=fixed;" parent="1" vertex="1">
          <mxGeometry x="760" y="80" width="40" height="40" as="geometry" />
        </mxCell>
        <mxCell id="9aQIo1MV9v7AI-3ga-QW-37" value="" style="ellipse;whiteSpace=wrap;html=1;aspect=fixed;" parent="1" vertex="1">
          <mxGeometry x="760" y="160" width="40" height="40" as="geometry" />
        </mxCell>
        <mxCell id="9aQIo1MV9v7AI-3ga-QW-38" value="" style="ellipse;whiteSpace=wrap;html=1;aspect=fixed;" parent="1" vertex="1">
          <mxGeometry x="760" y="240" width="40" height="40" as="geometry" />
        </mxCell>
        <mxCell id="9aQIo1MV9v7AI-3ga-QW-39" value="" style="ellipse;whiteSpace=wrap;html=1;aspect=fixed;" parent="1" vertex="1">
          <mxGeometry x="760" y="320" width="40" height="40" as="geometry" />
        </mxCell>
        <mxCell id="3kcBv0xAYxEKEZCNpnh7-14" value="&lt;h2&gt;&lt;b&gt;R&lt;/b&gt;&lt;/h2&gt;" style="text;html=1;strokeColor=none;fillColor=none;align=center;verticalAlign=middle;whiteSpace=wrap;rounded=0;" vertex="1" parent="1">
          <mxGeometry x="190" y="40" width="60" height="30" as="geometry" />
        </mxCell>
        <mxCell id="3kcBv0xAYxEKEZCNpnh7-15" value="&lt;h2&gt;&lt;b&gt;R+2&lt;/b&gt;&lt;/h2&gt;" style="text;html=1;strokeColor=none;fillColor=none;align=center;verticalAlign=middle;whiteSpace=wrap;rounded=0;" vertex="1" parent="1">
          <mxGeometry x="350" y="40" width="60" height="30" as="geometry" />
        </mxCell>
      </root>
    </mxGraphModel>
  </diagram>
</mxfile>
